<svg xmlns="http://www.w3.org/2000/svg" width="1400" height="820" viewBox="0 0 1400 820">
  <title>JJC V1 assembled club concept</title>
  <desc>Concept diagram showing the JJC V1 juggling club assembled around a central dowel rod.</desc>

  <defs>
    <style>
      .bg { fill: #f7f7f2; }
      .title { font: 700 38px Arial, sans-serif; fill: #202426; }
      .subtitle { font: 18px Arial, sans-serif; fill: #4b5357; }
      .label { font: 20px Arial, sans-serif; fill: #202426; }
      .small { font: 16px Arial, sans-serif; fill: #4b5357; }
      .dowel { fill: #b98554; stroke: #68401f; stroke-width: 4; }
      .knob { fill: #86a6d9; stroke: #274d85; stroke-width: 4; }
      .handle { fill: #7cc4b8; stroke: #1f6f68; stroke-width: 4; }
      .collar { fill: #d89562; stroke: #7a431b; stroke-width: 4; }
      .body { fill: #d7ece8; stroke: #1f6f68; stroke-width: 4; }
      .upper-body { fill: #cfe3f2; stroke: #2e5f89; stroke-width: 4; }
      .nose { fill: #9db58f; stroke: #4a6c3c; stroke-width: 4; }
      .axis { stroke: #50585c; stroke-width: 2; stroke-dasharray: 14 10; }
      .callout { stroke: #202426; stroke-width: 2; fill: none; }
      .joint { stroke: #202426; stroke-width: 3; stroke-dasharray: 8 6; }
    </style>
  </defs>

  <rect class="bg" width="1400" height="820"/>
  <text class="title" x="70" y="70">JJC V1 - Assembled Club Concept</text>
  <text class="subtitle" x="70" y="102">Non-electronic first version: printed TPU-style parts built around a rigid 1/2 inch dowel spine.</text>

  <line class="axis" x1="125" y1="410" x2="1275" y2="410"/>

  <rect class="dowel" x="190" y="391" width="980" height="38" rx="16"/>
  <ellipse class="dowel" cx="190" cy="410" rx="12" ry="19"/>
  <ellipse class="dowel" cx="1170" cy="410" rx="12" ry="19"/>

  <ellipse class="knob" cx="205" cy="410" rx="42" ry="80"/>
  <rect class="knob" x="205" y="330" width="70" height="160"/>
  <ellipse class="knob" cx="275" cy="410" rx="30" ry="80"/>

  <rect class="handle" x="275" y="350" width="250" height="120"/>
  <ellipse class="handle" cx="275" cy="410" rx="28" ry="60"/>
  <ellipse class="handle" cx="525" cy="410" rx="28" ry="60"/>

  <path class="collar" d="M 525 350 L 600 320 L 680 500 L 525 470 Z"/>
  <ellipse class="collar" cx="525" cy="410" rx="28" ry="60"/>
  <ellipse class="collar" cx="640" cy="410" rx="45" ry="91"/>

  <path class="body" d="M 635 300
                         C 710 270, 800 255, 900 275
                         C 930 320, 945 365, 945 410
                         C 945 455, 930 500, 900 545
                         C 800 565, 710 550, 635 520
                         C 685 455, 685 365, 635 300 Z"/>

  <path class="upper-body" d="M 900 275
                              C 1015 295, 1125 335, 1195 375
                              C 1230 402, 1230 418, 1195 445
                              C 1125 485, 1015 525, 900 545
                              C 930 500, 945 455, 945 410
                              C 945 365, 930 320, 900 275 Z"/>

  <ellipse class="nose" cx="1195" cy="410" rx="42" ry="72"/>
  <line class="joint" x1="900" y1="275" x2="900" y2="545"/>
  <line class="joint" x1="1195" y1="338" x2="1195" y2="482"/>

  <path class="callout" d="M 205 330 C 175 255, 130 225, 80 220"/>
  <text class="label" x="80" y="205">Item 4: Knob cap</text>
  <text class="small" x="80" y="230">protects handle end</text>

  <path class="callout" d="M 405 350 C 390 275, 415 230, 470 210"/>
  <text class="label" x="470" y="195">Item 3: Handle sleeve</text>
  <text class="small" x="470" y="220">main grip around dowel</text>

  <path class="callout" d="M 625 320 C 650 250, 700 215, 760 210"/>
  <text class="label" x="760" y="195">Item 5: Body-to-handle collar</text>
  <text class="small" x="760" y="220">transition into body shell</text>

  <path class="callout" d="M 785 510 C 735 585, 680 625, 620 635"/>
  <text class="label" x="410" y="650">Built-in dowel sleeves</text>
  <text class="small" x="410" y="675">lower and upper shells support the spine directly</text>

  <path class="callout" d="M 760 292 C 790 220, 835 165, 910 150"/>
  <text class="label" x="910" y="145">Item 6: Lower body shell</text>
  <text class="small" x="910" y="170">separate printed shell section</text>

  <path class="callout" d="M 1040 305 C 1065 235, 1110 205, 1180 205"/>
  <text class="label" x="1180" y="200">Item 7: Upper body shell</text>
  <text class="small" x="1180" y="225">separate printed shell section</text>

  <path class="callout" d="M 1220 375 C 1260 330, 1300 310, 1340 320"/>
  <text class="label" x="1235" y="300">Item 8: Nose cap</text>

  <path class="callout" d="M 640 410 C 670 625, 770 700, 905 710"/>
  <text class="label" x="905" y="705">Item 1: Dowel rod</text>
  <text class="small" x="905" y="730">1/2 inch = 12.7 mm</text>
</svg>
